<mxfile host="65bd71144e">
    <diagram id="Y6L18nt9Lb71eyJJPauM" name="Page-1">
        <mxGraphModel dx="974" dy="441" grid="1" gridSize="10" guides="1" tooltips="1" connect="1" arrows="1" fold="1" page="1" pageScale="1" pageWidth="850" pageHeight="1100" math="0" shadow="0">
            <root>
                <mxCell id="0"/>
                <mxCell id="1" parent="0"/>
                <mxCell id="2" value="Web Browser" style="shape=umlLifeline;perimeter=lifelinePerimeter;whiteSpace=wrap;html=1;container=1;collapsible=0;recursiveResize=0;outlineConnect=0;" vertex="1" parent="1">
                    <mxGeometry x="50" y="160" width="110" height="400" as="geometry"/>
                </mxCell>
                <mxCell id="30" value="" style="rounded=0;whiteSpace=wrap;html=1;" vertex="1" parent="2">
                    <mxGeometry x="52.5" y="80" width="5" height="60" as="geometry"/>
                </mxCell>
                <mxCell id="32" value="" style="rounded=0;whiteSpace=wrap;html=1;" vertex="1" parent="2">
                    <mxGeometry x="52.5" y="140" width="5" height="60" as="geometry"/>
                </mxCell>
                <mxCell id="3" value="" style="rounded=0;whiteSpace=wrap;html=1;" vertex="1" parent="2">
                    <mxGeometry x="50" y="80" width="10" height="120" as="geometry"/>
                </mxCell>
                <mxCell id="7" value="(via MQTT)&lt;br&gt;marker label, location data, ESP32 MAC Address" style="text;html=1;strokeColor=none;fillColor=none;align=center;verticalAlign=middle;whiteSpace=wrap;rounded=0;" vertex="1" parent="1">
                    <mxGeometry x="410" y="370" width="155" height="45" as="geometry"/>
                </mxCell>
                <mxCell id="9" value="Node-RED" style="shape=umlLifeline;perimeter=lifelinePerimeter;whiteSpace=wrap;html=1;container=1;collapsible=0;recursiveResize=0;outlineConnect=0;" vertex="1" parent="1">
                    <mxGeometry x="560" y="160" width="100" height="400" as="geometry"/>
                </mxCell>
                <mxCell id="10" value="" style="rounded=0;whiteSpace=wrap;html=1;" vertex="1" parent="9">
                    <mxGeometry x="47.5" y="260" width="5" height="60" as="geometry"/>
                </mxCell>
                <mxCell id="11" value="" style="rounded=0;whiteSpace=wrap;html=1;" vertex="1" parent="9">
                    <mxGeometry x="45" y="260" width="10" height="60" as="geometry"/>
                </mxCell>
                <mxCell id="13" value="ESP32" style="shape=umlLifeline;perimeter=lifelinePerimeter;whiteSpace=wrap;html=1;container=1;collapsible=0;recursiveResize=0;outlineConnect=0;" vertex="1" parent="1">
                    <mxGeometry x="310" y="160" width="100" height="400" as="geometry"/>
                </mxCell>
                <mxCell id="14" value="" style="rounded=0;whiteSpace=wrap;html=1;" vertex="1" parent="13">
                    <mxGeometry x="47.5" y="80" width="5" height="60" as="geometry"/>
                </mxCell>
                <mxCell id="15" value="" style="rounded=0;whiteSpace=wrap;html=1;" vertex="1" parent="13">
                    <mxGeometry x="47.5" y="140" width="5" height="60" as="geometry"/>
                </mxCell>
                <mxCell id="16" value="" style="rounded=0;whiteSpace=wrap;html=1;" vertex="1" parent="13">
                    <mxGeometry x="47.5" y="200" width="5" height="60" as="geometry"/>
                </mxCell>
                <mxCell id="17" value="" style="rounded=0;whiteSpace=wrap;html=1;" vertex="1" parent="13">
                    <mxGeometry x="47.5" y="260" width="5" height="60" as="geometry"/>
                </mxCell>
                <mxCell id="20" value="" style="rounded=0;whiteSpace=wrap;html=1;" vertex="1" parent="13">
                    <mxGeometry x="45" y="80" width="10" height="280" as="geometry"/>
                </mxCell>
                <mxCell id="22" style="edgeStyle=none;html=1;startArrow=none;exitX=1;exitY=0;exitDx=0;exitDy=0;entryX=0.5;entryY=0;entryDx=0;entryDy=0;" edge="1" parent="1" source="17" target="10">
                    <mxGeometry relative="1" as="geometry">
                        <mxPoint x="740" y="330" as="sourcePoint"/>
                        <mxPoint x="600" y="420" as="targetPoint"/>
                    </mxGeometry>
                </mxCell>
                <mxCell id="23" style="edgeStyle=none;html=1;startArrow=none;entryX=0.5;entryY=0;entryDx=0;entryDy=0;" edge="1" parent="1" source="2" target="14">
                    <mxGeometry relative="1" as="geometry">
                        <mxPoint x="619.5" y="250" as="targetPoint"/>
                        <mxPoint x="371.25" y="250" as="sourcePoint"/>
                    </mxGeometry>
                </mxCell>
                <mxCell id="24" value="HTTP GET /" style="text;html=1;strokeColor=none;fillColor=none;align=center;verticalAlign=middle;whiteSpace=wrap;rounded=0;" vertex="1" parent="1">
                    <mxGeometry x="160" y="210" width="145" height="30" as="geometry"/>
                </mxCell>
                <mxCell id="31" value="web page" style="text;html=1;strokeColor=none;fillColor=none;align=center;verticalAlign=middle;whiteSpace=wrap;rounded=0;" vertex="1" parent="1">
                    <mxGeometry x="162.5" y="270" width="145" height="30" as="geometry"/>
                </mxCell>
                <mxCell id="33" style="edgeStyle=elbowEdgeStyle;html=1;startArrow=none;exitX=1;exitY=1;exitDx=0;exitDy=0;entryX=0;entryY=1;entryDx=0;entryDy=0;" edge="1" parent="1" source="32" target="15">
                    <mxGeometry relative="1" as="geometry">
                        <mxPoint x="260" y="370" as="targetPoint"/>
                        <mxPoint x="190" y="350" as="sourcePoint"/>
                        <Array as="points"/>
                    </mxGeometry>
                </mxCell>
                <mxCell id="34" value="HTTP POST /&lt;br&gt;marker label, location data" style="text;html=1;strokeColor=none;fillColor=none;align=center;verticalAlign=middle;whiteSpace=wrap;rounded=0;" vertex="1" parent="1">
                    <mxGeometry x="160" y="324" width="145" height="30" as="geometry"/>
                </mxCell>
                <mxCell id="39" style="edgeStyle=none;html=1;startArrow=none;exitX=0;exitY=1;exitDx=0;exitDy=0;entryX=0.5;entryY=0;entryDx=0;entryDy=0;" edge="1" parent="1" source="10">
                    <mxGeometry relative="1" as="geometry">
                        <mxPoint x="607.5" y="599.9999999999998" as="sourcePoint"/>
                        <mxPoint x="360" y="480" as="targetPoint"/>
                    </mxGeometry>
                </mxCell>
                <mxCell id="40" value="" style="edgeStyle=elbowEdgeStyle;html=1;startArrow=none;exitX=-0.039;exitY=0.214;exitDx=0;exitDy=0;endArrow=classic;entryX=0.5;entryY=0;entryDx=0;entryDy=0;endFill=1;exitPerimeter=0;" edge="1" parent="1" source="20" target="32">
                    <mxGeometry relative="1" as="geometry">
                        <mxPoint x="107.49999999999989" y="300" as="targetPoint"/>
                        <mxPoint x="355" y="300.00000000000034" as="sourcePoint"/>
                        <Array as="points"/>
                    </mxGeometry>
                </mxCell>
                <mxCell id="41" value="(via MQTT)&lt;br&gt;trespass status" style="text;html=1;strokeColor=none;fillColor=none;align=center;verticalAlign=middle;whiteSpace=wrap;rounded=0;" vertex="1" parent="1">
                    <mxGeometry x="410" y="445" width="155" height="30" as="geometry"/>
                </mxCell>
            </root>
        </mxGraphModel>
    </diagram>
</mxfile>